<mxfile host="Electron" agent="Mozilla/5.0 (Macintosh; Intel Mac OS X 10_15_7) AppleWebKit/537.36 (KHTML, like Gecko) draw.io/27.0.9 Chrome/134.0.6998.205 Electron/35.4.0 Safari/537.36" version="27.0.9">
  <diagram name="Page-1" id="F7EcH7vRjiFmEOpmPuGE">
    <mxGraphModel dx="2066" dy="1134" grid="1" gridSize="10" guides="1" tooltips="1" connect="1" arrows="1" fold="1" page="1" pageScale="1" pageWidth="1100" pageHeight="850" math="0" shadow="0">
      <root>
        <mxCell id="0" />
        <mxCell id="1" parent="0" />
        <mxCell id="UPY6HfK8HmusNe_DcZyD-1" value="&lt;h1 style=&quot;margin-top: 0px;&quot;&gt;Social Media for Healthy Society and Culture&lt;/h1&gt;&lt;p&gt;Functional software development is not enough.&amp;nbsp;&lt;/p&gt;&lt;p style=&quot;margin: 0px; font-variant-numeric: normal; font-variant-east-asian: normal; font-variant-alternates: normal; font-size-adjust: none; font-kerning: auto; font-optical-sizing: auto; font-feature-settings: normal; font-variation-settings: normal; font-variant-position: normal; font-variant-emoji: normal; font-stretch: normal; line-height: normal;&quot; class=&quot;p1&quot;&gt;The Wholesomeness of Social Apps Helps and Sustains Society OR Harms Society&lt;/p&gt;" style="text;html=1;whiteSpace=wrap;overflow=hidden;rounded=0;" parent="1" vertex="1">
          <mxGeometry x="300" y="620" width="530" height="135" as="geometry" />
        </mxCell>
        <mxCell id="UPY6HfK8HmusNe_DcZyD-6" style="edgeStyle=orthogonalEdgeStyle;rounded=0;orthogonalLoop=1;jettySize=auto;html=1;exitX=0.5;exitY=1;exitDx=0;exitDy=0;entryX=0.5;entryY=0;entryDx=0;entryDy=0;" parent="1" source="UPY6HfK8HmusNe_DcZyD-2" target="UPY6HfK8HmusNe_DcZyD-3" edge="1">
          <mxGeometry relative="1" as="geometry" />
        </mxCell>
        <mxCell id="UPY6HfK8HmusNe_DcZyD-2" value="hard working married person opens social media app" style="rounded=1;whiteSpace=wrap;html=1;" parent="1" vertex="1">
          <mxGeometry x="280" y="135" width="120" height="60" as="geometry" />
        </mxCell>
        <mxCell id="UPY6HfK8HmusNe_DcZyD-9" style="edgeStyle=orthogonalEdgeStyle;rounded=0;orthogonalLoop=1;jettySize=auto;html=1;entryX=0.5;entryY=1;entryDx=0;entryDy=0;" parent="1" source="UPY6HfK8HmusNe_DcZyD-3" target="UPY6HfK8HmusNe_DcZyD-8" edge="1">
          <mxGeometry relative="1" as="geometry" />
        </mxCell>
        <mxCell id="UPY6HfK8HmusNe_DcZyD-15" value="NO" style="edgeLabel;html=1;align=center;verticalAlign=middle;resizable=0;points=[];" parent="UPY6HfK8HmusNe_DcZyD-9" vertex="1" connectable="0">
          <mxGeometry x="-0.3154" y="-2" relative="1" as="geometry">
            <mxPoint as="offset" />
          </mxGeometry>
        </mxCell>
        <mxCell id="UPY6HfK8HmusNe_DcZyD-12" style="edgeStyle=orthogonalEdgeStyle;rounded=0;orthogonalLoop=1;jettySize=auto;html=1;entryX=0.5;entryY=0;entryDx=0;entryDy=0;" parent="1" source="UPY6HfK8HmusNe_DcZyD-3" target="UPY6HfK8HmusNe_DcZyD-11" edge="1">
          <mxGeometry relative="1" as="geometry" />
        </mxCell>
        <mxCell id="UPY6HfK8HmusNe_DcZyD-17" value="YES" style="edgeLabel;html=1;align=center;verticalAlign=middle;resizable=0;points=[];" parent="UPY6HfK8HmusNe_DcZyD-12" vertex="1" connectable="0">
          <mxGeometry x="-0.6733" y="1" relative="1" as="geometry">
            <mxPoint as="offset" />
          </mxGeometry>
        </mxCell>
        <mxCell id="UPY6HfK8HmusNe_DcZyD-3" value="sees&lt;div&gt;emotionally&lt;/div&gt;&lt;div&gt;balanced&lt;/div&gt;&lt;div&gt;media&lt;/div&gt;" style="rhombus;whiteSpace=wrap;html=1;" parent="1" vertex="1">
          <mxGeometry x="280" y="225" width="110" height="110" as="geometry" />
        </mxCell>
        <mxCell id="UPY6HfK8HmusNe_DcZyD-5" style="edgeStyle=orthogonalEdgeStyle;rounded=0;orthogonalLoop=1;jettySize=auto;html=1;entryX=1;entryY=0.5;entryDx=0;entryDy=0;" parent="1" source="UPY6HfK8HmusNe_DcZyD-4" target="UPY6HfK8HmusNe_DcZyD-2" edge="1">
          <mxGeometry relative="1" as="geometry" />
        </mxCell>
        <mxCell id="UPY6HfK8HmusNe_DcZyD-4" value="" style="ellipse;shape=doubleEllipse;html=1;dashed=0;whiteSpace=wrap;aspect=fixed;" parent="1" vertex="1">
          <mxGeometry x="460" y="132.5" width="65" height="65" as="geometry" />
        </mxCell>
        <mxCell id="UPY6HfK8HmusNe_DcZyD-8" value="" style="ellipse;html=1;shape=endState;fillColor=strokeColor;" parent="1" vertex="1">
          <mxGeometry x="550" y="130" width="70" height="70" as="geometry" />
        </mxCell>
        <mxCell id="UPY6HfK8HmusNe_DcZyD-13" style="edgeStyle=orthogonalEdgeStyle;rounded=0;orthogonalLoop=1;jettySize=auto;html=1;entryX=0.5;entryY=1;entryDx=0;entryDy=0;" parent="1" source="UPY6HfK8HmusNe_DcZyD-11" target="UPY6HfK8HmusNe_DcZyD-8" edge="1">
          <mxGeometry relative="1" as="geometry" />
        </mxCell>
        <mxCell id="UPY6HfK8HmusNe_DcZyD-16" value="NO" style="edgeLabel;html=1;align=center;verticalAlign=middle;resizable=0;points=[];" parent="UPY6HfK8HmusNe_DcZyD-13" vertex="1" connectable="0">
          <mxGeometry x="-0.5086" y="-2" relative="1" as="geometry">
            <mxPoint as="offset" />
          </mxGeometry>
        </mxCell>
        <mxCell id="UPY6HfK8HmusNe_DcZyD-19" style="edgeStyle=orthogonalEdgeStyle;rounded=0;orthogonalLoop=1;jettySize=auto;html=1;entryX=0.5;entryY=0;entryDx=0;entryDy=0;" parent="1" source="UPY6HfK8HmusNe_DcZyD-11" target="UPY6HfK8HmusNe_DcZyD-18" edge="1">
          <mxGeometry relative="1" as="geometry" />
        </mxCell>
        <mxCell id="UPY6HfK8HmusNe_DcZyD-11" value="has time&lt;div&gt;no warnings&lt;/div&gt;&lt;div&gt;ex. picking&lt;/div&gt;&lt;div&gt;kids from&lt;/div&gt;&lt;div&gt;school&lt;/div&gt;" style="rhombus;whiteSpace=wrap;html=1;" parent="1" vertex="1">
          <mxGeometry x="280" y="365" width="110" height="110" as="geometry" />
        </mxCell>
        <mxCell id="UPY6HfK8HmusNe_DcZyD-21" style="edgeStyle=orthogonalEdgeStyle;rounded=0;orthogonalLoop=1;jettySize=auto;html=1;" parent="1" source="UPY6HfK8HmusNe_DcZyD-18" target="UPY6HfK8HmusNe_DcZyD-20" edge="1">
          <mxGeometry relative="1" as="geometry" />
        </mxCell>
        <mxCell id="UPY6HfK8HmusNe_DcZyD-18" value="builds a social media presence" style="shape=process;whiteSpace=wrap;html=1;backgroundOutline=1;" parent="1" vertex="1">
          <mxGeometry x="275" y="520" width="120" height="60" as="geometry" />
        </mxCell>
        <mxCell id="UPY6HfK8HmusNe_DcZyD-24" style="edgeStyle=orthogonalEdgeStyle;rounded=0;orthogonalLoop=1;jettySize=auto;html=1;entryX=0.5;entryY=1;entryDx=0;entryDy=0;" parent="1" source="UPY6HfK8HmusNe_DcZyD-20" target="UPY6HfK8HmusNe_DcZyD-23" edge="1">
          <mxGeometry relative="1" as="geometry" />
        </mxCell>
        <mxCell id="UPY6HfK8HmusNe_DcZyD-20" value="Ad for a tool&lt;div&gt;maybe needed&lt;/div&gt;&lt;div&gt;for a home&lt;/div&gt;&lt;div&gt;project&lt;/div&gt;" style="shape=ellipse;html=1;dashed=0;whiteSpace=wrap;aspect=fixed;perimeter=ellipsePerimeter;" parent="1" vertex="1">
          <mxGeometry x="535" y="500" width="100" height="100" as="geometry" />
        </mxCell>
        <mxCell id="UPY6HfK8HmusNe_DcZyD-28" style="edgeStyle=orthogonalEdgeStyle;rounded=0;orthogonalLoop=1;jettySize=auto;html=1;entryX=0.5;entryY=1;entryDx=0;entryDy=0;" parent="1" source="UPY6HfK8HmusNe_DcZyD-22" target="UPY6HfK8HmusNe_DcZyD-27" edge="1">
          <mxGeometry relative="1" as="geometry" />
        </mxCell>
        <mxCell id="UPY6HfK8HmusNe_DcZyD-22" value="on way home buys &#39;tool&#39; at the local hardware" style="shape=process;whiteSpace=wrap;html=1;backgroundOutline=1;" parent="1" vertex="1">
          <mxGeometry x="700" y="390" width="120" height="60" as="geometry" />
        </mxCell>
        <mxCell id="UPY6HfK8HmusNe_DcZyD-25" style="edgeStyle=orthogonalEdgeStyle;rounded=0;orthogonalLoop=1;jettySize=auto;html=1;exitX=0;exitY=0.5;exitDx=0;exitDy=0;entryX=0.5;entryY=1;entryDx=0;entryDy=0;" parent="1" source="UPY6HfK8HmusNe_DcZyD-23" target="UPY6HfK8HmusNe_DcZyD-22" edge="1">
          <mxGeometry relative="1" as="geometry" />
        </mxCell>
        <mxCell id="UPY6HfK8HmusNe_DcZyD-23" value="warning&amp;nbsp;&lt;span style=&quot;background-color: transparent; color: light-dark(rgb(0, 0, 0), rgb(255, 255, 255));&quot;&gt;popup&lt;/span&gt;&lt;div&gt;&lt;span style=&quot;background-color: transparent; color: light-dark(rgb(0, 0, 0), rgb(255, 255, 255));&quot;&gt;spent&amp;nbsp;&lt;/span&gt;&lt;span style=&quot;background-color: transparent; color: light-dark(rgb(0, 0, 0), rgb(255, 255, 255));&quot;&gt;&amp;gt; 15 mins&lt;/span&gt;&lt;/div&gt;&lt;div&gt;leaves&lt;div&gt;&lt;br&gt;&lt;/div&gt;&lt;div&gt;&lt;br&gt;&lt;/div&gt;&lt;div&gt;&lt;br&gt;&lt;/div&gt;&lt;div&gt;&lt;br&gt;&lt;/div&gt;&lt;/div&gt;" style="triangle;whiteSpace=wrap;html=1;dashed=0;direction=south;" parent="1" vertex="1">
          <mxGeometry x="690" y="490" width="140" height="120" as="geometry" />
        </mxCell>
        <mxCell id="UPY6HfK8HmusNe_DcZyD-30" style="edgeStyle=orthogonalEdgeStyle;rounded=0;orthogonalLoop=1;jettySize=auto;html=1;entryX=0.5;entryY=1;entryDx=0;entryDy=0;" parent="1" source="UPY6HfK8HmusNe_DcZyD-27" target="UPY6HfK8HmusNe_DcZyD-29" edge="1">
          <mxGeometry relative="1" as="geometry" />
        </mxCell>
        <mxCell id="UPY6HfK8HmusNe_DcZyD-27" value="makes dinner&lt;div&gt;joins his family&lt;/div&gt;&lt;div&gt;for the evening&lt;/div&gt;" style="shape=process;whiteSpace=wrap;html=1;backgroundOutline=1;" parent="1" vertex="1">
          <mxGeometry x="700" y="275" width="120" height="60" as="geometry" />
        </mxCell>
        <mxCell id="UPY6HfK8HmusNe_DcZyD-31" style="edgeStyle=orthogonalEdgeStyle;rounded=0;orthogonalLoop=1;jettySize=auto;html=1;entryX=1;entryY=0.5;entryDx=0;entryDy=0;" parent="1" source="UPY6HfK8HmusNe_DcZyD-29" target="UPY6HfK8HmusNe_DcZyD-8" edge="1">
          <mxGeometry relative="1" as="geometry" />
        </mxCell>
        <mxCell id="UPY6HfK8HmusNe_DcZyD-29" value="Ad for a tool&lt;div&gt;maybe needed&lt;/div&gt;&lt;div&gt;for a home&lt;/div&gt;&lt;div&gt;project&lt;/div&gt;" style="shape=ellipse;html=1;dashed=0;whiteSpace=wrap;aspect=fixed;perimeter=ellipsePerimeter;" parent="1" vertex="1">
          <mxGeometry x="710" y="115" width="100" height="100" as="geometry" />
        </mxCell>
        <mxCell id="7zqo6cco9beeFy1rzUCV-1" value="Good Emotional Use Case Diagram" style="swimlane;whiteSpace=wrap;html=1;" vertex="1" parent="1">
          <mxGeometry x="235" y="70" width="655" height="680" as="geometry" />
        </mxCell>
      </root>
    </mxGraphModel>
  </diagram>
</mxfile>
